<svg width="16" height="10" viewBox="0 0 16 10" fill="none" xmlns="http://www.w3.org/2000/svg">
<path fill-rule="evenodd" clip-rule="evenodd" d="M8.66666 1.33333H12.6667C14.14 1.33333 15.3333 2.52667 15.3333 4V9.33333C15.3333 9.7 15.0333 10 14.6667 10C14.3 10 14 9.7 14 9.33333V8H2V9.33333C2 9.7 1.7 10 1.33333 10C0.966664 10 0.666664 9.7 0.666664 9.33333V0.666667C0.666664 0.3 0.966664 0 1.33333 0C1.7 0 2 0.3 2 0.666667V6H7.33333V2.66667C7.33333 1.93333 7.93333 1.33333 8.66666 1.33333ZM6.66666 3.33333C6.66666 4.44 5.77333 5.33333 4.66666 5.33333C3.56 5.33333 2.66666 4.44 2.66666 3.33333C2.66666 2.22667 3.56 1.33333 4.66666 1.33333C5.77333 1.33333 6.66666 2.22667 6.66666 3.33333Z" fill="#000"/>
</svg>
