<svg width="12" height="14" viewBox="0 0 12 14" fill="none" xmlns="http://www.w3.org/2000/svg">
<path fill-rule="evenodd" clip-rule="evenodd" d="M10.6667 1.66666H10V0.999995C10 0.633328 9.7 0.333328 9.33333 0.333328C8.96667 0.333328 8.66667 0.633328 8.66667 0.999995V1.66666H3.33333V0.999995C3.33333 0.633328 3.03333 0.333328 2.66667 0.333328C2.3 0.333328 2 0.633328 2 0.999995V1.66666H1.33333C0.593333 1.66666 0.00666667 2.26666 0.00666667 2.99999L0 12.3333C0 13.0667 0.593333 13.6667 1.33333 13.6667H10.6667C11.4 13.6667 12 13.0667 12 12.3333V2.99999C12 2.26666 11.4 1.66666 10.6667 1.66666ZM10.6667 11.6667C10.6667 12.0333 10.3667 12.3333 10 12.3333H2C1.63333 12.3333 1.33333 12.0333 1.33333 11.6667V4.99999H10.6667V11.6667ZM5.33333 6.33333H3.33333C2.96667 6.33333 2.66667 6.63333 2.66667 6.99999V9C2.66667 9.36666 2.96667 9.66666 3.33333 9.66666H5.33333C5.7 9.66666 6 9.36666 6 9V6.99999C6 6.63333 5.7 6.33333 5.33333 6.33333Z" fill="#000"/>
</svg>
