<svg width="10" height="14" viewBox="0 0 10 14" fill="none" xmlns="http://www.w3.org/2000/svg">
<path fill-rule="evenodd" clip-rule="evenodd" d="M0.333336 5.00999C0.333336 2.42999 2.42 0.343323 5 0.343323C7.58 0.343323 9.66667 2.42999 9.66667 5.00999C9.66667 7.78999 6.72 11.6233 5.51334 13.0833C5.24667 13.4033 4.76 13.4033 4.49334 13.0833C3.28 11.6233 0.333336 7.78999 0.333336 5.00999ZM3.33334 5.00999C3.33334 5.92999 4.08 6.67666 5 6.67666C5.92 6.67666 6.66667 5.92999 6.66667 5.00999C6.66667 4.08999 5.92 3.34332 5 3.34332C4.08 3.34332 3.33334 4.08999 3.33334 5.00999Z" fill="#000"/>
</svg>
